<svg xmlns="http://www.w3.org/2000/svg" width="200" height="200" viewBox="0 0 459 321" style="image-rendering:optimizeQuality;shape-rendering:geometricPrecision;text-rendering:geometricPrecision"><defs><style type="text/css">  
    .fil0 {fill:#fff;fill-rule:nonzero}
    .fil1 {fill:#fff;fill-rule:nonzero}
   </style></defs><path class="fil0" d="M286 313l-65-130-121 0-69 138-31 0 148-296 12-25 13 25 138 276-25 12zm-79-158l-47-94-46 94 93 0z"/><polygon class="fil1" points="329 0 183 293 414 293 359 183 298 183 298 155 367 155 376 155 380 163 449 301 459 321 436 321 160 321 138 321 148 301 298 0 "/></svg>