<?xml version="1.0" encoding="UTF-8"?>
<!DOCTYPE svg PUBLIC "-//W3C//DTD SVG 1.1//EN" "http://www.w3.org/Graphics/SVG/1.1/DTD/svg11.dtd">
<!-- Creator: CorelDRAW X7 -->
<svg xmlns="http://www.w3.org/2000/svg" xml:space="preserve" width="10.9454mm" height="8.4667mm" version="1.1" style="shape-rendering:geometricPrecision; text-rendering:geometricPrecision; image-rendering:optimizeQuality; fill-rule:evenodd; clip-rule:evenodd"
viewBox="0 0 892 690"
 xmlns:xlink="http://www.w3.org/1999/xlink">
 <defs>
  <style type="text/css">
   <![CDATA[
    .fil1 {fill:#2B2A29;fill-rule:nonzero}
    .fil0 {fill:#787574;fill-rule:nonzero}
    .fil2 {fill:#E31C3B;fill-rule:nonzero}
   ]]>
  </style>
 </defs>
 <g id="Layer_x0020_1">
  <metadata id="CorelCorpID_0Corel-Layer"/>
  <polygon class="fil0" points="750,0 578,345 517,314 673,0 "/>
  <polygon class="fil1" points="391,0 726,671 713,678 375,0 "/>
  <polygon class="fil0" points="892,364 720,364 720,295 892,295 "/>
  <polygon class="fil0" points="578,314 751,659 689,690 517,345 "/>
  <polygon class="fil0" points="892,406 751,690 689,659 862,314 892,329 "/>
  <polygon class="fil2" points="421,0 766,690 758,674 751,690 750,690 689,690 344,0 "/>
  <polygon class="fil2" points="547,364 202,364 202,295 547,295 "/>
  <polygon class="fil0" points="766,0 828,123 766,154 689,0 "/>
  <polygon class="fil2" points="344,0 0,690 77,690 421,0 "/>
 </g>
</svg>
