<?xml version="1.0" encoding="UTF-8"?>
<!DOCTYPE svg PUBLIC "-//W3C//DTD SVG 1.1//EN" "http://www.w3.org/Graphics/SVG/1.1/DTD/svg11.dtd">
<!-- Creator: CorelDRAW X7 -->
<svg xmlns="http://www.w3.org/2000/svg" xml:space="preserve" width="8.4666mm" height="8.4666mm" version="1.1" style="shape-rendering:geometricPrecision; text-rendering:geometricPrecision; image-rendering:optimizeQuality; fill-rule:evenodd; clip-rule:evenodd"
viewBox="0 0 847 847"
 xmlns:xlink="http://www.w3.org/1999/xlink">
 <defs>
  <style type="text/css">
   <![CDATA[
    .fil1 {fill:#E31C3B}
    .fil0 {fill:#FEFEFE}
   ]]>
  </style>
 </defs>
 <g id="Layer_x0020_1">
  <metadata id="CorelCorpID_0Corel-Layer"/>
  <circle class="fil0" cx="423" cy="423" r="423"/>
  <path class="fil1" d="M397 466l-395 0c21,214 202,381 421,381 53,0 104,-10 151,-28l-177 -353z"/>
  <path class="fil1" d="M470 423l165 329 143 -286 -143 0 0 -85 210 0c-8,-78 -37,-149 -81,-209l-72 36 -57 -114 -165 329z"/>
  <polygon class="fil1" points="68,381 355,381 212,94 "/>
  <path class="fil1" d="M273 28l150 301 151 -301c-47,-18 -98,-28 -151,-28 -53,0 -104,10 -150,28z"/>
 </g>
</svg>
