<?xml version="1.0" encoding="UTF-8"?>
<!DOCTYPE svg PUBLIC "-//W3C//DTD SVG 1.1//EN" "http://www.w3.org/Graphics/SVG/1.1/DTD/svg11.dtd">
<!-- Creator: CorelDRAW X7 -->
<svg xmlns="http://www.w3.org/2000/svg" xml:space="preserve" version="1.1" style="shape-rendering:geometricPrecision; text-rendering:geometricPrecision; image-rendering:optimizeQuality; fill-rule:evenodd; clip-rule:evenodd"
viewBox="0 0 459 321"
 xmlns:xlink="http://www.w3.org/1999/xlink">
 <defs>
  <style type="text/css">
   <![CDATA[
    .fil0 {fill:#207188;fill-rule:nonzero}
    .fil1 {fill:#D90F0F;fill-rule:nonzero}
   ]]>
  </style>
 </defs>
 <g id="Layer_x0020_1">
  <metadata id="CorelCorpID_0Corel-Layer"/>
  <path class="fil0" d="M286 313l-65 -130 -121 0 -69 138 -31 0 148 -296 12 -25 13 25 138 276 -25 12zm-79 -158l-47 -94 -46 94 93 0z"/>
  <polygon class="fil1" points="329,0 183,293 414,293 359,183 298,183 298,155 367,155 376,155 380,163 449,301 459,321 436,321 160,321 138,321 148,301 298,0 "/>
 </g>
</svg>
