<?xml version="1.0" encoding="UTF-8"?>
<!DOCTYPE svg PUBLIC "-//W3C//DTD SVG 1.1//EN" "http://www.w3.org/Graphics/SVG/1.1/DTD/svg11.dtd">
<!-- Creator: CorelDRAW X7 -->
<svg xmlns="http://www.w3.org/2000/svg" xml:space="preserve" width="100px" height="100px" version="1.1" style="shape-rendering:geometricPrecision; text-rendering:geometricPrecision; image-rendering:optimizeQuality; fill-rule:evenodd; clip-rule:evenodd"
viewBox="0 0 100 100"
 xmlns:xlink="http://www.w3.org/1999/xlink">
 <defs>
  <style type="text/css">
   <![CDATA[
    .str0 {stroke:#E31C3B;stroke-width:9.99929}
    .fil1 {fill:none}
    .fil0 {fill:#E31C3B;fill-rule:nonzero}
    .fil2 {fill:#787574;fill-rule:nonzero}
   ]]>
  </style>
 </defs>
 <g id="Layer_x0020_1">
  <metadata id="CorelCorpID_0Corel-Layer"/>
  <path class="fil0" d="M100 50c0,14 -6,26 -15,35 -9,9 -21,15 -35,15 -14,0 -26,-6 -35,-15 -9,-9 -15,-21 -15,-35 0,-14 6,-26 15,-35 9,-9 21,-15 35,-15l0 10c-11,0 -21,4 -29,11 -7,8 -11,18 -11,29 0,11 4,21 11,29 8,7 18,11 29,11 11,0 21,-4 29,-11 7,-8 11,-18 11,-29l10 0z"/>
  <line class="fil1 str0" x1="100" y1="50" x2="28" y2= "50" />
  <polygon class="fil2" points="2,92 46,8 50,0 54,8 98,92 90,97 50,21 10,97 "/>
 </g>
</svg>
