<?xml version="1.0" encoding="UTF-8"?>
<!DOCTYPE svg PUBLIC "-//W3C//DTD SVG 1.1//EN" "http://www.w3.org/Graphics/SVG/1.1/DTD/svg11.dtd">
<!-- Creator: CorelDRAW X7 -->
<svg xmlns="http://www.w3.org/2000/svg" xml:space="preserve" width="8.4666mm" height="8.4666mm" version="1.1" style="shape-rendering:geometricPrecision; text-rendering:geometricPrecision; image-rendering:optimizeQuality; fill-rule:evenodd; clip-rule:evenodd"
viewBox="0 0 847 847"
 xmlns:xlink="http://www.w3.org/1999/xlink">
 <defs>
  <style type="text/css">
   <![CDATA[
    .fil1 {fill:#2B2A29;fill-rule:nonzero}
    .fil0 {fill:#787574;fill-rule:nonzero}
    .fil2 {fill:#E31C3B;fill-rule:nonzero}
   ]]>
  </style>
 </defs>
 <g id="Layer_x0020_1">
  <metadata id="CorelCorpID_0Corel-Layer"/>
  <polygon class="fil0" points="672,0 461,423 386,385 578,0 "/>
  <polygon class="fil1" points="231,0 643,823 627,831 212,0 "/>
  <polygon class="fil0" points="847,446 635,446 635,361 847,361 "/>
  <polygon class="fil0" points="461,385 673,808 597,846 386,423 "/>
  <polygon class="fil0" points="847,498 673,846 597,808 809,385 847,404 "/>
  <polygon class="fil2" points="269,0 692,847 682,827 673,846 672,847 597,846 174,0 "/>
  <polygon class="fil2" points="423,446 0,446 0,361 423,361 "/>
  <polygon class="fil0" points="692,0 767,151 692,189 598,0 "/>
  <polygon class="fil2" points="175,0 0,350 0,446 46,446 269,0 "/>
 </g>
</svg>
