<svg xmlns="http://www.w3.org/2000/svg" viewBox="0 0 460 460"><path fill="#c8523b" d="M79.3 142.409l-2.675 36.315h52.523l2.675-36.315z"/><path fill="#e5c400" d="M64.064 350.686l52.398 1.745.796-10.986-52.398-1.748z"/><path fill="#c8523b" d="M62.211 376.441h52.523l1.728-23.981-52.398-1.728zm2.649-36.744l52.398 1.748 9.839-138.515H74.574z"/><path fill="#e5c400" d="M74.574 202.93h52.523l2.051-24.206H76.625zm58.589-157.36h72.635v40.353h-72.635zm0 112.981h72.635v217.89h-72.635z"/><path fill="#59595a" d="M133.163 85.923h72.635v72.629h-72.635z"/><path fill="#608a7c" d="M213.857 194.869h52.463v44.379h-52.463z"/><path fill="#abcb57" d="M213.857 239.248h52.463v84.733h-52.463zm0 100.879h52.463v36.314h-52.463z"/><path fill="#e5c400" d="M213.857 323.981h52.463v16.146h-52.463z"/><path fill="#abcb57" d="M213.857 134.334h52.463v60.535h-52.463zm0-52.447h52.463v40.347h-52.463z"/><path fill="#608a7c" d="M213.857 122.234h52.463v12.1h-52.463z"/><path fill="#abcb57" d="M293.736 72.751l-25.325 1.762 1.091 13.763 25.312-1.768z"/><path fill="#608a7c" d="M292.283 376.441h25.457l-2.774-35.042-25.207 3.253zm-.771-332.882l-25.31 2.011 2.209 28.943 25.325-1.762zm3.302 42.949l-25.312 1.768 18.436 233.247 25.207-3.234z"/><path fill="#abcb57" d="M287.938 321.523l1.821 23.08 25.207-3.234-1.821-23.08z"/><path fill="#c8523b" d="M322.8 323.981h72.635v52.46H322.8zm0-217.889h72.635v157.371H322.8z"/><path fill="#e5c400" d="M322.8 263.462h72.635v60.519H322.8z"/><path fill="#b9bbbc" d="M0 376.441h460v40H0z"/><path opacity=".3" fill="#5b5b5f" d="M0 396.441h460v20H0z"/></svg>