<svg xmlns="http://www.w3.org/2000/svg" width="60" height="42" viewBox="0 0 60000 41999" shape-rendering="geometricPrecision" text-rendering="geometricPrecision" image-rendering="optimizeQuality" fill-rule="evenodd" clip-rule="evenodd"><defs><style>.fil0{fill:#c66;fill-rule:nonzero}</style></defs><path class="fil0" d="M54369 42126H5619C2525 42126-1 39605-1 36503V5497C-1 2400 2525-126 5619-126h48750c3105 0 5632 2526 5632 5623v31006c0 3102-2527 5623-5632 5623zM5619 3628c-1026 0-1866 841-1866 1869v31006c0 1036 840 1878 1866 1878h48750c1038 0 1878-842 1878-1878V5497c0-1028-840-1869-1878-1869H5619zm24382 22584c-1777 0-3546-658-4928-1984L4082 3976c-742-722-770-1903-45-2657 721-740 1902-758 2653-43l20985 20248c1299 1247 3331 1247 4632 0L53732 872c747-724 1930-696 2654 48 712 740 693 1931-46 2642L34915 24228c-1381 1326-3147 1984-4914 1984zM1876 35186c-605 0-1200-294-1565-843-567-861-331-2023 528-2600l20070-13303c860-576 2032-338 2598 532 578 861 340 2023-519 2599L2909 34875c-321 210-678 311-1033 311zm56248 91c-358 0-714-100-1036-310L37167 21783c-860-567-1097-1731-530-2593 567-868 1731-1105 2601-529l19921 13173c859 567 1097 1731 530 2600-367 541-960 843-1565 843z" id="Layer_x0020_1"/></svg>