<svg xmlns="http://www.w3.org/2000/svg" width="32" height="32" viewBox="0 0 847 847" shape-rendering="geometricPrecision" text-rendering="geometricPrecision" image-rendering="optimizeQuality" fill-rule="evenodd" clip-rule="evenodd"><defs><style>.fil0{fill-rule:nonzero}.fil1{fill:#2b2a29}.fil1,.fil2{fill-rule:nonzero}.fil0{fill:#787574}.fil2{fill:#e31c3b}</style></defs><g id="Layer_x0020_1"><path class="fil0" d="M672 0L461 423l-75-38L578 0z"/><path class="fil1" d="M231 0l412 823-16 8L212 0z"/><path class="fil0" d="M847 446H635v-85h212zm-386-61l212 423-76 38-211-423z"/><path class="fil0" d="M847 498L673 846l-76-38 212-423 38 19z"/><path class="fil2" d="M269 0l423 847-10-20-9 19-1 1-75-1L174 0z"/><path class="fil2" d="M423 446H0v-85h423z"/><path class="fil0" d="M692 0l75 151-75 38L598 0z"/><path class="fil2" d="M175 0L0 350v96h46L269 0z"/></g></svg>