<svg xmlns="http://www.w3.org/2000/svg" width="32" height="32" viewBox="0 0 847 847" shape-rendering="geometricPrecision" text-rendering="geometricPrecision" image-rendering="optimizeQuality" fill-rule="evenodd" clip-rule="evenodd"><defs><style>.fil1{fill:#e31c3b}.fil0{fill:#fefefe}</style></defs><g id="Layer_x0020_1"><circle class="fil0" cx="423" cy="423" r="423"/><path class="fil1" d="M397 466H2c21 214 202 381 421 381 53 0 104-10 151-28L397 466zm73-43l165 329 143-286H635v-85h210c-8-78-37-149-81-209l-72 36-57-114-165 329zM68 381h287L212 94zM273 28l150 301L574 28C527 10 476 0 423 0S319 10 273 28z"/></g></svg>