<svg xmlns="http://www.w3.org/2000/svg" width="41.368" height="32" viewBox="0 0 892 690" shape-rendering="geometricPrecision" text-rendering="geometricPrecision" image-rendering="optimizeQuality" fill-rule="evenodd" clip-rule="evenodd"><defs><style>.fil0{fill-rule:nonzero}.fil1{fill:#2b2a29}.fil1,.fil2{fill-rule:nonzero}.fil0{fill:#787574}.fil2{fill:#e31c3b}</style></defs><g id="Layer_x0020_1"><path class="fil0" d="M750 0L578 345l-61-31L673 0z"/><path class="fil1" d="M391 0l335 671-13 7L375 0z"/><path class="fil0" d="M892 364H720v-69h172zm-314-50l173 345-62 31-172-345z"/><path class="fil0" d="M892 406L751 690l-62-31 173-345 30 15z"/><path class="fil2" d="M421 0l345 690-8-16-7 16h-62L344 0z"/><path class="fil2" d="M547 364H202v-69h345z"/><path class="fil0" d="M766 0l62 123-62 31L689 0z"/><path class="fil2" d="M344 0L0 690h77L421 0z"/></g></svg>