<svg xmlns="http://www.w3.org/2000/svg" width="100" height="100" viewBox="0 0 100 100" shape-rendering="geometricPrecision" text-rendering="geometricPrecision" image-rendering="optimizeQuality" fill-rule="evenodd" clip-rule="evenodd"><defs><style>.str0{stroke:#e31c3b;stroke-width:9.99929}.fil1{fill:none}.fil0,.fil2{fill:#e31c3b;fill-rule:nonzero}.fil2{fill:#787574}</style></defs><g id="Layer_x0020_1"><path class="fil0" d="M100 50c0 14-6 26-15 35s-21 15-35 15-26-6-35-15S0 64 0 50s6-26 15-35S36 0 50 0v10c-11 0-21 4-29 11-7 8-11 18-11 29s4 21 11 29c8 7 18 11 29 11s21-4 29-11c7-8 11-18 11-29h10z"/><path class="fil1 str0" d="M100 50H28"/><path class="fil2" d="M2 92L46 8l4-8 4 8 44 84-8 5-40-76-40 76z"/></g></svg>